<?xml version="1.0" standalone="no"?>
<!DOCTYPE svg PUBLIC "-//W3C//DTD SVG 20010904//EN"
 "http://www.w3.org/TR/2001/REC-SVG-20010904/DTD/svg10.dtd">
<svg version="1.0" xmlns="http://www.w3.org/2000/svg"
 width="329.000000pt" height="329.000000pt" viewBox="0 0 329.000000 329.000000"
 preserveAspectRatio="xMidYMid meet">
<metadata>
Created by potrace 1.14, written by Peter Selinger 2001-2017
</metadata>
<g transform="translate(0.000000,329.000000) scale(0.100000,-0.100000)"
fill="#000000" stroke="none">
<path d="M25 3265 c-14 -13 -25 -36 -25 -50 0 -31 41 -75 69 -75 11 0 31 5 45
12 24 10 41 -1 289 -187 l264 -199 -5 -41 c-4 -37 -1 -44 28 -69 21 -17 42
-26 57 -24 24 3 28 -6 88 -171 l64 -175 -25 -29 c-29 -35 -31 -76 -4 -105 20
-21 27 -23 73 -26 27 -1 262 -523 247 -548 -15 -26 -12 -56 6 -66 15 -8 1 -40
-103 -238 -107 -205 -122 -229 -143 -226 -31 3 -60 -25 -60 -58 0 -37 23 -54
60 -46 28 5 62 -20 433 -315 297 -238 402 -327 403 -343 1 -44 14 -73 39 -84
36 -17 48 -15 80 10 23 18 26 27 22 58 l-5 37 230 209 c126 115 233 210 236
211 4 1 19 4 34 7 31 7 44 36 29 64 -14 26 -38 34 -62 21 -17 -8 -101 43 -569
348 -429 280 -550 362 -550 379 0 24 -18 44 -41 44 -12 0 -49 73 -138 271
-113 253 -120 272 -106 292 35 50 5 127 -49 127 -27 0 -19 -16 -105 220 -48
134 -48 135 -30 159 23 29 25 79 4 108 -21 30 -69 39 -100 19 -25 -16 -28 -14
-293 185 l-267 201 3 38 c3 31 -1 41 -23 59 -36 28 -70 27 -100 -4z m1839
-2139 c307 -200 501 -333 502 -344 2 -9 4 -24 6 -32 2 -9 -87 -98 -224 -223
l-227 -207 -39 6 c-23 3 -48 1 -60 -5 -19 -10 -62 21 -429 313 l-408 325 1 43
c0 35 23 88 117 268 82 159 123 228 139 235 28 13 -32 49 622 -379z"/>
</g>
</svg>
